<svg width="390" height="300" viewBox="0 0 390 300" xmlns="http://www.w3.org/2000/svg" role="img">
<rect width="390" height="300" rx="8" fill="#0a0e14"/>
<text x="28" y="58" font-family="'SFMono-Regular',Consolas,'Liberation Mono',Menlo,monospace" font-size="22" font-weight="700" fill="#7ee787">&gt; top languages</text>
<line x1="28" y1="80" x2="362" y2="80" stroke="#2c3a4d" stroke-width="1.5"/>
<text x="28" y="118" font-family="'SFMono-Regular',Consolas,'Liberation Mono',Menlo,monospace" font-size="17" fill="#c9d4e0">Python</text>
<rect x="160" y="105" width="190" height="11" rx="5.5" fill="#2c3a4d"/>
<rect x="160" y="105" width="190" height="11" rx="5.5" fill="#3572A5"/>
<text x="362" y="118" font-family="'SFMono-Regular',Consolas,'Liberation Mono',Menlo,monospace" font-size="17" font-weight="700" fill="#5ccfe6" text-anchor="end">59%</text>
<text x="28" y="148" font-family="'SFMono-Regular',Consolas,'Liberation Mono',Menlo,monospace" font-size="17" fill="#c9d4e0">HTML</text>
<rect x="160" y="135" width="190" height="11" rx="5.5" fill="#2c3a4d"/>
<rect x="160" y="135" width="71" height="11" rx="5.5" fill="#e34c26"/>
<text x="362" y="148" font-family="'SFMono-Regular',Consolas,'Liberation Mono',Menlo,monospace" font-size="17" font-weight="700" fill="#5ccfe6" text-anchor="end">22%</text>
<text x="28" y="178" font-family="'SFMono-Regular',Consolas,'Liberation Mono',Menlo,monospace" font-size="17" fill="#c9d4e0">JavaScript</text>
<rect x="160" y="165" width="190" height="11" rx="5.5" fill="#2c3a4d"/>
<rect x="160" y="165" width="27" height="11" rx="5.5" fill="#f1e05a"/>
<text x="362" y="178" font-family="'SFMono-Regular',Consolas,'Liberation Mono',Menlo,monospace" font-size="17" font-weight="700" fill="#5ccfe6" text-anchor="end">8%</text>
<text x="28" y="208" font-family="'SFMono-Regular',Consolas,'Liberation Mono',Menlo,monospace" font-size="17" fill="#c9d4e0">SCSS</text>
<rect x="160" y="195" width="190" height="11" rx="5.5" fill="#2c3a4d"/>
<rect x="160" y="195" width="20" height="11" rx="5.5" fill="#c6538c"/>
<text x="362" y="208" font-family="'SFMono-Regular',Consolas,'Liberation Mono',Menlo,monospace" font-size="17" font-weight="700" fill="#5ccfe6" text-anchor="end">6%</text>
<text x="28" y="238" font-family="'SFMono-Regular',Consolas,'Liberation Mono',Menlo,monospace" font-size="17" fill="#c9d4e0">CSS</text>
<rect x="160" y="225" width="190" height="11" rx="5.5" fill="#2c3a4d"/>
<rect x="160" y="225" width="12" height="11" rx="5.5" fill="#663399"/>
<text x="362" y="238" font-family="'SFMono-Regular',Consolas,'Liberation Mono',Menlo,monospace" font-size="17" font-weight="700" fill="#5ccfe6" text-anchor="end">4%</text>
<text x="28" y="268" font-family="'SFMono-Regular',Consolas,'Liberation Mono',Menlo,monospace" font-size="17" fill="#c9d4e0">Groovy</text>
<rect x="160" y="255" width="190" height="11" rx="5.5" fill="#2c3a4d"/>
<rect x="160" y="255" width="3" height="11" rx="5.5" fill="#4298b8"/>
<text x="362" y="268" font-family="'SFMono-Regular',Consolas,'Liberation Mono',Menlo,monospace" font-size="17" font-weight="700" fill="#5ccfe6" text-anchor="end">1%</text>
</svg>
