<svg width="340" height="210" viewBox="0 0 340 210" xmlns="http://www.w3.org/2000/svg" role="img">
<rect width="340" height="210" rx="6" fill="#0a0e14"/>
<text x="20" y="40" font-family="'SFMono-Regular',Consolas,'Liberation Mono',Menlo,monospace" font-size="15" font-weight="700" fill="#7ee787">&gt; top languages</text>
<line x1="20" y1="54" x2="320" y2="54" stroke="#2c3a4d" stroke-width="1"/>
<text x="20" y="74" font-family="'SFMono-Regular',Consolas,'Liberation Mono',Menlo,monospace" font-size="12" fill="#c9d4e0">Python</text>
<rect x="120" y="65" width="150" height="8" rx="4" fill="#2c3a4d"/>
<rect x="120" y="65" width="150" height="8" rx="4" fill="#3572A5"/>
<text x="320" y="74" font-family="'SFMono-Regular',Consolas,'Liberation Mono',Menlo,monospace" font-size="12" font-weight="700" fill="#5ccfe6" text-anchor="end">38%</text>
<text x="20" y="96" font-family="'SFMono-Regular',Consolas,'Liberation Mono',Menlo,monospace" font-size="12" fill="#c9d4e0">HTML</text>
<rect x="120" y="87" width="150" height="8" rx="4" fill="#2c3a4d"/>
<rect x="120" y="87" width="138" height="8" rx="4" fill="#e34c26"/>
<text x="320" y="96" font-family="'SFMono-Regular',Consolas,'Liberation Mono',Menlo,monospace" font-size="12" font-weight="700" fill="#5ccfe6" text-anchor="end">35%</text>
<text x="20" y="118" font-family="'SFMono-Regular',Consolas,'Liberation Mono',Menlo,monospace" font-size="12" fill="#c9d4e0">Java</text>
<rect x="120" y="109" width="150" height="8" rx="4" fill="#2c3a4d"/>
<rect x="120" y="109" width="58" height="8" rx="4" fill="#b07219"/>
<text x="320" y="118" font-family="'SFMono-Regular',Consolas,'Liberation Mono',Menlo,monospace" font-size="12" font-weight="700" fill="#5ccfe6" text-anchor="end">15%</text>
<text x="20" y="140" font-family="'SFMono-Regular',Consolas,'Liberation Mono',Menlo,monospace" font-size="12" fill="#c9d4e0">TeX</text>
<rect x="120" y="131" width="150" height="8" rx="4" fill="#2c3a4d"/>
<rect x="120" y="131" width="21" height="8" rx="4" fill="#3D6117"/>
<text x="320" y="140" font-family="'SFMono-Regular',Consolas,'Liberation Mono',Menlo,monospace" font-size="12" font-weight="700" fill="#5ccfe6" text-anchor="end">5%</text>
<text x="20" y="162" font-family="'SFMono-Regular',Consolas,'Liberation Mono',Menlo,monospace" font-size="12" fill="#c9d4e0">Shell</text>
<rect x="120" y="153" width="150" height="8" rx="4" fill="#2c3a4d"/>
<rect x="120" y="153" width="19" height="8" rx="4" fill="#89e051"/>
<text x="320" y="162" font-family="'SFMono-Regular',Consolas,'Liberation Mono',Menlo,monospace" font-size="12" font-weight="700" fill="#5ccfe6" text-anchor="end">5%</text>
<text x="20" y="184" font-family="'SFMono-Regular',Consolas,'Liberation Mono',Menlo,monospace" font-size="12" fill="#c9d4e0">C</text>
<rect x="120" y="175" width="150" height="8" rx="4" fill="#2c3a4d"/>
<rect x="120" y="175" width="8" height="8" rx="4" fill="#555555"/>
<text x="320" y="184" font-family="'SFMono-Regular',Consolas,'Liberation Mono',Menlo,monospace" font-size="12" font-weight="700" fill="#5ccfe6" text-anchor="end">2%</text>
</svg>
