<svg width="500" height="300" viewBox="0 0 500 300" xmlns="http://www.w3.org/2000/svg" role="img">
<rect width="500" height="300" rx="8" fill="#0a0e14"/>
<text x="28" y="58" font-family="'SFMono-Regular',Consolas,'Liberation Mono',Menlo,monospace" font-size="22" font-weight="700" fill="#7ee787">&gt; top languages</text>
<line x1="28" y1="80" x2="472" y2="80" stroke="#2c3a4d" stroke-width="1.5"/>
<text x="28" y="116" font-family="'SFMono-Regular',Consolas,'Liberation Mono',Menlo,monospace" font-size="17" fill="#c9d4e0">Python</text>
<rect x="150" y="102" width="295" height="16" rx="8.0" fill="#2c3a4d"/>
<rect x="150" y="102" width="295" height="16" rx="8.0" fill="#3572A5"/>
<text x="472" y="116" font-family="'SFMono-Regular',Consolas,'Liberation Mono',Menlo,monospace" font-size="17" font-weight="700" fill="#5ccfe6" text-anchor="end">48%</text>
<text x="28" y="149" font-family="'SFMono-Regular',Consolas,'Liberation Mono',Menlo,monospace" font-size="17" fill="#c9d4e0">HTML</text>
<rect x="150" y="135" width="295" height="16" rx="8.0" fill="#2c3a4d"/>
<rect x="150" y="135" width="136" height="16" rx="8.0" fill="#e34c26"/>
<text x="472" y="149" font-family="'SFMono-Regular',Consolas,'Liberation Mono',Menlo,monospace" font-size="17" font-weight="700" fill="#5ccfe6" text-anchor="end">22%</text>
<text x="28" y="182" font-family="'SFMono-Regular',Consolas,'Liberation Mono',Menlo,monospace" font-size="17" fill="#c9d4e0">Java</text>
<rect x="150" y="168" width="295" height="16" rx="8.0" fill="#2c3a4d"/>
<rect x="150" y="168" width="115" height="16" rx="8.0" fill="#b07219"/>
<text x="472" y="182" font-family="'SFMono-Regular',Consolas,'Liberation Mono',Menlo,monospace" font-size="17" font-weight="700" fill="#5ccfe6" text-anchor="end">19%</text>
<text x="28" y="215" font-family="'SFMono-Regular',Consolas,'Liberation Mono',Menlo,monospace" font-size="17" fill="#c9d4e0">JavaScript</text>
<rect x="150" y="201" width="295" height="16" rx="8.0" fill="#2c3a4d"/>
<rect x="150" y="201" width="40" height="16" rx="8.0" fill="#f1e05a"/>
<text x="472" y="215" font-family="'SFMono-Regular',Consolas,'Liberation Mono',Menlo,monospace" font-size="17" font-weight="700" fill="#5ccfe6" text-anchor="end">7%</text>
<text x="28" y="248" font-family="'SFMono-Regular',Consolas,'Liberation Mono',Menlo,monospace" font-size="17" fill="#c9d4e0">SCSS</text>
<rect x="150" y="234" width="295" height="16" rx="8.0" fill="#2c3a4d"/>
<rect x="150" y="234" width="17" height="16" rx="8.0" fill="#c6538c"/>
<text x="472" y="248" font-family="'SFMono-Regular',Consolas,'Liberation Mono',Menlo,monospace" font-size="17" font-weight="700" fill="#5ccfe6" text-anchor="end">3%</text>
<text x="28" y="281" font-family="'SFMono-Regular',Consolas,'Liberation Mono',Menlo,monospace" font-size="17" fill="#c9d4e0">CSS</text>
<rect x="150" y="267" width="295" height="16" rx="8.0" fill="#2c3a4d"/>
<rect x="150" y="267" width="12" height="16" rx="8.0" fill="#663399"/>
<text x="472" y="281" font-family="'SFMono-Regular',Consolas,'Liberation Mono',Menlo,monospace" font-size="17" font-weight="700" fill="#5ccfe6" text-anchor="end">2%</text>
</svg>
